<svg width="24" height="24" viewBox="0 0 20 20" fill="currentColor" xmlns="http://www.w3.org/2000/svg">
  <path d="M8.43338 7.41784C8.58818 7.31464 8.77939 7.22240 9 7.15101L9.00001 8.84899C8.77939 8.77760 8.58818 8.68536 8.43338 8.58216C8.06927 8.33942 8 8.11390 8 8C8 7.88610 8.06927 7.66058 8.43338 7.41784Z" fill="currentColor"/>
  <path d="M11 12.849L11 11.151C11.2206 11.22240 11.4118 11.31460 11.5666 11.4178C11.9308 11.66060 12 11.88610 12 12C12 12.11390 11.9308 12.33940 11.5666 12.5822C11.4118 12.6854 11.2206 12.7776 11 12.849Z" fill="currentColor"/>
  <path fill-rule="evenodd" clip-rule="evenodd" d="M10 18C14.4183 18 18 14.4183 18 10C18 5.58172 14.4183 2 10 2C5.58172 2 2 5.58172 2 10C2 14.4183 5.58172 18 10 18ZM11 5C11 4.44772 10.5523 4 10 4C9.44772 4 9 4.44772 9 5V5.09199C8.37840 5.20873 7.80348 5.43407 7.32398 5.75374C6.60230 6.23485 6.00001 7.00933 6.00001 8.00000C6.00001 9.00067 6.60230 9.76515 7.32398 10.2463C7.80348 10.56590 8.37841 10.7913 9.00001 10.90800L9.00002 12.84920C8.60902 12.72230 8.31917 12.53190 8.15667 12.3446C7.79471 11.92750 7.16313 11.88270 6.74599 12.2447C6.32885 12.6067 6.28411 13.2382 6.64607 13.6554C7.20855 14.3036 8.05956 14.7308 9.00001 14.90760L9.00001 15.00000C8.99999 15.55230 9.44769 16.0000 9.99998 16.0000C10.5523 16.0000 11.0000 15.5523 11.0000 15.0000L11.0000 14.9080C11.6216 14.7913 12.1965 14.5659 12.6760 14.2463C13.3977 13.7651 14.0000 12.9907 14.0000 12.0000C14.0000 11.0093 13.3977 10.2348 12.6760 9.75373C12.1965 9.43407 11.6216 9.20873 11.0000 9.09199L11.0000 7.15075C11.3910 7.27771 11.6808 7.46810 11.8434 7.65538C12.2053 8.07252 12.8369 8.11726 13.2540 7.75530C13.6712 7.39335 13.7159 6.76176 13.3540 6.34462C12.7915 5.69637 11.9405 5.26915 11.0000 5.09236V5.00000Z" fill="currentColor"/>
</svg>
