<svg xmlns="http://www.w3.org/2000/svg" xmlns:xlink="http://www.w3.org/1999/xlink" version="1.1" x="0px" y="0px" viewBox="0 0 100 125" style="enable-background:new 0 0 100 100;" xml:space="preserve" preserveAspectRatio="xMinYMin meet">
  <g>
    <path d="M28.1,63.3c-2.2,0.7-4.3,1.4-5.9,2.1C15,68.9,16,79.7,16,80.2c0.1,1,1,1.8,2,1.8H82c1,0,1.9-0.8,2-1.8 c0-0.5,1.1-11.3-6.1-14.8c0,0,0,0,0,0c-1.6-0.8-3.7-1.4-5.9-2.1c-5-1.6-11.2-3.5-12.3-7.2c0.1-0.6,0.3-2.4,1.7-3.7 c2.7-2.7,5.6-10.2,5.6-17.6c0,0,0-0.1,0-0.1c0-0.4-0.8-10.8-6.7-15.2C59.5,18.7,56.2,16,50,16c0,0-0.1,0-0.1,0 c-6.1,0-9.4,2.7-10.2,3.4c-6,4.4-6.7,14.8-6.7,15.2c0,0,0,0.1,0,0.1c0,7.4,2.9,14.9,5.6,17.6c1.4,1.4,1.6,3.2,1.7,3.7 C39.3,59.8,33.1,61.7,28.1,63.3z" fill="#FFFFFF" />
  </g>
  <text x="0" y="115" fill="#000000" font-size="5px" font-weight="bold" font-family="'Helvetica Neue', Helvetica, Arial-Unicode, Arial, Sans-serif">Created by Besticons</text>
  <text x="0" y="120" fill="#000000" font-size="5px" font-weight="bold" font-family="'Helvetica Neue', Helvetica, Arial-Unicode, Arial, Sans-serif">from the Noun Project</text>
</svg>
